<?xml version="1.0" encoding="utf-8"?>
<!-- Generator: Adobe Illustrator 17.0.1, SVG Export Plug-In . SVG Version: 6.00 Build 0)  -->
<!DOCTYPE svg PUBLIC "-//W3C//DTD SVG 1.1//EN" "http://www.w3.org/Graphics/SVG/1.1/DTD/svg11.dtd">
<svg version="1.1" id="Layer_2" xmlns="http://www.w3.org/2000/svg" xmlns:xlink="http://www.w3.org/1999/xlink" x="0px" y="0px"
	 width="172px" height="45px" viewBox="-1 -0.752 172 45" enable-background="new -1 -0.752 172 45" xml:space="preserve">
<g>
	<path d="M17.508,27.232h-2.322L2.584,11.657v15.575H0.041V6.999h2.157l12.766,15.664V6.999h2.543V27.232z"/>
	<path d="M27.097,16.018c2.459,0,4.228,1.869,4.228,4.45c0,2.878-1.63,4.658-4.228,4.658c-2.376,0-4.007-1.87-4.007-4.688
		C23.089,17.887,24.776,16.018,27.097,16.018z M27.125,13.645c-3.703,0-6.55,2.966-6.55,6.793c0,4.094,2.736,7.061,6.55,7.061
		c3.979,0,6.715-2.848,6.715-7.061C33.84,16.493,31.021,13.645,27.125,13.645z"/>
	<path d="M39.2,13.912v3.056h0.055c1.244-2.344,2.433-3.323,3.593-3.323c0.995,0,1.935,0.504,2.957,1.542l-1.299,2.284
		c-0.746-0.77-1.713-1.305-2.293-1.305c-1.687,0-3.013,1.81-3.013,4.093v6.972h-2.46v-13.32H39.2z"/>
	<path d="M55.95,17.383c-1.409-1.008-2.349-1.305-3.427-1.305c-2.239,0-3.787,1.809-3.787,4.508c0,2.759,1.658,4.421,4.202,4.421
		c1.05,0,2.044-0.297,3.288-0.891v2.61c-0.829,0.415-2.405,0.771-3.703,0.771c-3.703,0-6.301-2.759-6.301-6.675
		c0-4.391,2.378-7.179,6.135-7.179c1.438,0,2.404,0.356,3.592,0.92L55.95,17.383C55.95,17.383,55.95,17.383,55.95,17.383z"/>
	<path d="M64.711,16.018c2.459,0,4.228,1.869,4.228,4.45c0,2.878-1.631,4.658-4.228,4.658c-2.377,0-4.007-1.87-4.007-4.688
		C60.704,17.887,62.39,16.018,64.711,16.018z M64.738,13.645c-3.703,0-6.549,2.966-6.549,6.793c0,4.094,2.736,7.061,6.549,7.061
		c3.981,0,6.716-2.848,6.716-7.061C71.454,16.493,68.635,13.645,64.738,13.645z"/>
	<path d="M76.595,15.662h0.055c0.94-1.276,2.321-2.017,3.703-2.017c2.349,0,4.228,1.72,4.228,5.37v8.217h-2.46v-8.247
		c0-1.958-0.939-3.234-2.431-3.234c-1.078,0-1.934,0.533-3.095,1.928v9.553h-2.46v-13.32h2.46V15.662z"/>
	<path d="M95.222,17.352c-1.382-0.978-2.682-1.393-3.594-1.393c-0.994,0-1.63,0.503-1.63,1.215c0,0.594,0.83,1.306,3.012,2.67
		c2.046,1.454,2.791,2.373,2.791,3.738c0,2.343-1.74,3.915-4.089,3.915c-1.52,0-2.709-0.326-4.312-1.216v-2.848
		c1.603,1.186,3.069,1.751,4.063,1.751c0.996-0.059,1.824-0.564,1.824-1.513c0-1.84-5.803-2.818-5.803-6.408
		c0-2.255,1.603-3.619,4.089-3.619c1.161,0,2.349,0.356,3.649,1.098L95.222,17.352L95.222,17.352z"/>
	<path d="M106.524,27.232v-1.691c-1.022,1.187-2.46,1.958-3.676,1.958c-2.514,0-4.283-1.927-4.283-5.31v-8.277h2.46v8.455
		c0,1.869,0.856,2.936,2.543,2.936c1.104,0,2.155-0.652,2.957-1.869v-9.523h2.46v13.32H106.524z"/>
	<path d="M114.981,27.232h-2.46V6.999h2.46V27.232z"/>
	<path d="M121.392,13.912h3.923v2.373h-3.923v6.824c0,1.573,1.049,2.018,1.768,2.018c0.885,0,1.797-0.327,2.791-0.98v2.463
		c-0.856,0.504-2.184,0.89-2.985,0.89c-2.681,0-4.034-1.78-4.034-4.182v-7.032h-2.155v-0.297l4.615-4.835V13.912z"/>
</g>
<linearGradient id="SVGID_1_" gradientUnits="userSpaceOnUse" x1="246.5992" y1="616.5186" x2="246.5992" y2="576.7838" gradientTransform="matrix(1 0 0 1 -95.2 -588.8)">
	<stop  offset="0" style="stop-color:#00AEEF"/>
	<stop  offset="0.0335" style="stop-color:#00A4E5"/>
	<stop  offset="0.1488" style="stop-color:#0089CB"/>
	<stop  offset="0.2639" style="stop-color:#0072B7"/>
	<stop  offset="0.3762" style="stop-color:#005FA8"/>
	<stop  offset="0.4853" style="stop-color:#034F9D"/>
	<stop  offset="0.59" style="stop-color:#1F4395"/>
	<stop  offset="0.6888" style="stop-color:#283B91"/>
	<stop  offset="0.7753" style="stop-color:#2B3990"/>
</linearGradient>
<path fill="url(#SVGID_1_)" d="M151.404,0l-8.335,8.338l8.335,8.333l8.335-8.333L151.404,0z M132.798,18.607l8.335,8.335
	l8.335-8.335l-8.335-8.335L132.798,18.607z M161.667,10.264l-8.337,8.336l8.337,8.336L170,18.599L161.667,10.264z"/>
<g>
	
		<radialGradient id="SVGID_2_" cx="246.6337" cy="607.3578" r="18.9622" gradientTransform="matrix(1 0 0 1 -95.2 -588.8)" gradientUnits="userSpaceOnUse">
		<stop  offset="0.478" style="stop-color:#00AEEF"/>
		<stop  offset="0.8462" style="stop-color:#2B3990"/>
	</radialGradient>
	<path fill="url(#SVGID_2_)" d="M157.877,28.864c0,3.581-2.903,6.484-6.482,6.484c-3.581,0-6.484-2.903-6.484-6.484
		c0-3.58,2.903-6.483,6.484-6.483C154.974,22.381,157.877,25.284,157.877,28.864z"/>
</g>
<g>
	<path d="M1.404,40.201H0v-9.773h1.404V40.201z"/>
	<path d="M4.643,34.612h0.029c0.487-0.616,1.204-0.974,1.92-0.974c1.218,0,2.193,0.831,2.193,2.594v3.969H7.509v-3.984
		c0-0.946-0.487-1.562-1.261-1.562c-0.559,0-1.003,0.258-1.605,0.932v4.614H3.368v-6.434h1.275
		C4.643,33.767,4.643,34.612,4.643,34.612z"/>
	<path d="M13.901,31.674c-0.215-0.086-0.344-0.115-0.573-0.115c-1.032,0-1.361,0.602-1.361,1.591v0.616h1.161v1.146h-1.161v5.288
		h-1.275v-5.288H9.788v-1.146h0.903v-0.473c0-1.261,0.301-1.863,0.817-2.379c0.544-0.544,1.275-0.803,2.393-0.487V31.674z"/>
	<path d="M20.493,36.919c0,2.035-1.419,3.411-3.482,3.411c-1.978,0-3.396-1.433-3.396-3.411c0-1.849,1.476-3.282,3.396-3.282
		C19.032,33.638,20.493,35.014,20.493,36.919z M14.919,36.919c0,1.361,0.846,2.264,2.078,2.264c1.347,0,2.193-0.86,2.193-2.25
		c0-1.247-0.917-2.149-2.193-2.149C15.793,34.784,14.919,35.687,14.919,36.919z"/>
	<path d="M23.274,33.767v1.476h0.029c0.645-1.132,1.261-1.605,1.863-1.605c0.516,0,1.003,0.244,1.533,0.745l-0.673,1.103
		c-0.387-0.373-0.888-0.631-1.189-0.631c-0.874,0-1.562,0.874-1.562,1.978v3.368h-1.275v-6.434L23.274,33.767L23.274,33.767z"/>
	<path d="M28.806,33.767v0.846c0.659-0.659,1.275-0.974,1.877-0.974c0.817,0,1.49,0.401,1.92,1.161
		c0.559-0.631,1.232-1.161,2.149-1.161c1.304,0,2.135,1.003,2.135,2.522v4.041h-1.275v-3.984c0-0.974-0.602-1.505-1.333-1.505
		c-0.416-0.014-0.974,0.344-1.433,0.817v4.672h-1.275v-3.998c0-1.046-0.53-1.49-1.161-1.49c-0.645,0-1.075,0.201-1.605,0.817v4.672
		H27.53v-6.434L28.806,33.767L28.806,33.767z"/>
	<path d="M43.624,39.828c-0.588,0.387-0.831,0.502-1.232,0.502c-0.559,0-0.86-0.201-0.974-0.659
		c-0.559,0.444-1.146,0.659-1.734,0.659c-0.946,0-1.576-0.745-1.576-1.576c0-1.275,1.161-1.662,2.193-2.035l1.132-0.401v-0.344
		c0-0.803-0.387-1.132-1.161-1.132c-0.702,0-1.419,0.33-2.035,1.06v-1.39c0.502-0.588,1.204-0.874,2.135-0.874
		c1.304,0,2.336,0.659,2.336,2.121v3.31c0,0.244,0.086,0.33,0.244,0.33c0.129,0,0.387-0.129,0.673-0.344L43.624,39.828
		L43.624,39.828L43.624,39.828z M41.431,37.02c-1.089,0.373-2.035,0.745-2.035,1.505c0,0.53,0.387,0.903,0.917,0.903
		c0.401,0,0.774-0.201,1.118-0.53L41.431,37.02L41.431,37.02z"/>
	<path d="M48.496,35.429c-0.717-0.473-1.39-0.673-1.863-0.673c-0.516,0-0.845,0.244-0.845,0.588c0,0.287,0.43,0.631,1.562,1.29
		c1.06,0.702,1.447,1.146,1.447,1.806c0,1.132-0.903,1.892-2.121,1.892c-0.788,0-1.404-0.158-2.235-0.588v-1.376
		c0.831,0.573,1.591,0.846,2.107,0.846c0.516-0.029,0.946-0.272,0.946-0.731c0-0.888-3.009-1.361-3.009-3.095
		c0-1.089,0.831-1.748,2.121-1.748c0.602,0,1.218,0.172,1.892,0.53L48.496,35.429L48.496,35.429z"/>
	<path d="M51.52,41.047c0,1.376-0.43,1.992-1.275,2.45l-0.96-0.946c0.559-0.229,0.96-0.688,0.96-1.404v-7.38h1.275L51.52,41.047
		L51.52,41.047z M50.89,32.577c-0.416,0-0.759-0.344-0.759-0.759c0-0.416,0.344-0.759,0.759-0.759s0.759,0.344,0.759,0.759
		C51.649,32.233,51.305,32.577,50.89,32.577z"/>
	<path d="M59.904,36.919c0,2.035-1.419,3.411-3.482,3.411c-1.978,0-3.396-1.433-3.396-3.411c0-1.849,1.476-3.282,3.396-3.282
		C58.442,33.638,59.904,35.014,59.904,36.919z M54.329,36.919c0,1.361,0.846,2.264,2.078,2.264c1.347,0,2.193-0.86,2.193-2.25
		c0-1.247-0.917-2.149-2.193-2.149C55.203,34.784,54.329,35.687,54.329,36.919z"/>
	<path d="M62.569,34.612h0.029c0.487-0.616,1.204-0.974,1.92-0.974c1.218,0,2.193,0.831,2.193,2.594v3.969h-1.275v-3.984
		c0-0.946-0.487-1.562-1.261-1.562c-0.559,0-1.003,0.258-1.605,0.932v4.614h-1.275v-6.434h1.275V34.612z"/>
	<path d="M72.228,35.429c-0.717-0.473-1.39-0.673-1.863-0.673c-0.516,0-0.845,0.244-0.845,0.588c0,0.287,0.43,0.631,1.562,1.29
		c1.06,0.702,1.447,1.146,1.447,1.806c0,1.132-0.903,1.892-2.121,1.892c-0.788,0-1.404-0.158-2.235-0.588v-1.376
		c0.831,0.573,1.591,0.846,2.107,0.846c0.516-0.029,0.946-0.272,0.946-0.731c0-0.888-3.009-1.361-3.009-3.095
		c0-1.089,0.831-1.748,2.121-1.748c0.602,0,1.218,0.172,1.892,0.53L72.228,35.429L72.228,35.429z"/>
	<path d="M77.746,35.429c-0.717-0.473-1.39-0.673-1.863-0.673c-0.516,0-0.846,0.244-0.846,0.588c0,0.287,0.43,0.631,1.562,1.29
		c1.061,0.702,1.447,1.146,1.447,1.806c0,1.132-0.903,1.892-2.121,1.892c-0.788,0-1.404-0.158-2.235-0.588v-1.376
		c0.831,0.573,1.591,0.846,2.107,0.846c0.516-0.029,0.946-0.272,0.946-0.731c0-0.888-3.009-1.361-3.009-3.095
		c0-1.089,0.831-1.748,2.121-1.748c0.602,0,1.218,0.172,1.892,0.53L77.746,35.429L77.746,35.429z"/>
	<path d="M80.34,43.497h-1.419l2.193-4.672l-2.493-5.059h1.447l1.734,3.625l1.662-3.625h1.433L80.34,43.497z"/>
	<path d="M89.54,35.429c-0.717-0.473-1.39-0.673-1.863-0.673c-0.516,0-0.846,0.244-0.846,0.588c0,0.287,0.43,0.631,1.562,1.29
		c1.061,0.702,1.447,1.146,1.447,1.806c0,1.132-0.903,1.892-2.121,1.892c-0.788,0-1.404-0.158-2.235-0.588v-1.376
		c0.831,0.573,1.591,0.846,2.107,0.846c0.516-0.029,0.946-0.272,0.946-0.731c0-0.888-3.009-1.361-3.009-3.095
		c0-1.089,0.831-1.748,2.121-1.748c0.602,0,1.218,0.172,1.892,0.53L89.54,35.429L89.54,35.429z"/>
	<path d="M92.808,33.767h2.035v1.146h-2.035v3.296c0,0.759,0.544,0.974,0.917,0.974c0.459,0,0.932-0.158,1.448-0.473V39.9
		c-0.444,0.244-1.132,0.43-1.548,0.43c-1.39,0-2.092-0.86-2.092-2.021v-3.396h-1.118V34.77l2.393-2.336L92.808,33.767L92.808,33.767
		z"/>
	<path d="M101.464,39.571c-0.774,0.516-1.476,0.759-2.565,0.759c-2.006,0-3.124-1.648-3.124-3.425c0-1.949,1.232-3.267,3.009-3.267
		c1.705,0,2.795,1.161,2.795,3.54H97.05c0.201,1.275,0.931,1.935,2.164,1.935c0.774,0,1.505-0.287,2.25-0.774V39.571z
		 M100.317,36.332c-0.043-0.974-0.602-1.591-1.505-1.591c-0.974,0-1.562,0.573-1.734,1.591H100.317z"/>
	<path d="M104.172,33.767v0.846c0.659-0.659,1.275-0.974,1.877-0.974c0.817,0,1.49,0.401,1.92,1.161
		c0.559-0.631,1.232-1.161,2.149-1.161c1.304,0,2.135,1.003,2.135,2.522v4.041h-1.276v-3.984c0-0.974-0.602-1.505-1.332-1.505
		c-0.416-0.014-0.974,0.344-1.433,0.817v4.672h-1.276v-3.998c0-1.046-0.53-1.49-1.161-1.49c-0.645,0-1.075,0.201-1.605,0.817v4.672
		h-1.275v-6.434L104.172,33.767L104.172,33.767L104.172,33.767z"/>
	<path d="M119.377,39.571c-0.774,0.516-1.476,0.759-2.565,0.759c-2.006,0-3.124-1.648-3.124-3.425c0-1.949,1.232-3.267,3.009-3.267
		c1.705,0,2.795,1.161,2.795,3.54h-4.528c0.201,1.275,0.931,1.935,2.164,1.935c0.774,0,1.505-0.287,2.25-0.774V39.571z
		 M118.231,36.332c-0.043-0.974-0.602-1.591-1.505-1.591c-0.974,0-1.562,0.573-1.734,1.591H118.231z"/>
	<path d="M122.229,33.767v1.476h0.029c0.645-1.132,1.261-1.605,1.863-1.605c0.516,0,1.003,0.244,1.533,0.745l-0.673,1.103
		c-0.387-0.373-0.888-0.631-1.19-0.631c-0.874,0-1.562,0.874-1.562,1.978v3.368h-1.276v-6.434L122.229,33.767L122.229,33.767z"/>
</g>
</svg>
